{
    "accessors" : [
        {
            "bufferView" : 0,
            "componentType" : 5123,
            "count" : 3984,
            "max" : [
                3275
            ],
            "min" : [
                0
            ],
            "type" : "SCALAR"
        },
        {
            "bufferView" : 1,
            "componentType" : 5126,
            "count" : 3276,
            "max" : [
                4.003115177154541,
                1.5497000217437744,
                -5.404308795928955
            ],
            "min" : [
                -4.003115177154541,
                -2.169275999069214,
                -21.635719299316406
            ],
            "type" : "VEC3"
        },
        {
            "bufferView" : 2,
            "componentType" : 5126,
            "count" : 3276,
            "max" : [
                0.99957275390625,
                0.999420166015625,
                0.9688711166381836
            ],
            "min" : [
                -0.9955137968063354,
                -0.999420166015625,
                -0.9688711166381836
            ],
            "type" : "VEC3"
        },
        {
            "bufferView" : 3,
            "componentType" : 5126,
            "count" : 3276,
            "max" : [
                1.0,
                0.9977546334266663,
                0.9814170002937317,
                1.0
            ],
            "min" : [
                -0.999666154384613,
                -0.9998131394386292,
                -0.9715051651000977,
                -1.0
            ],
            "type" : "VEC4"
        },
        {
            "bufferView" : 4,
            "componentType" : 5126,
            "count" : 3276,
            "max" : [
                1.0018800497055054,
                1.0
            ],
            "min" : [
                0.0,
                0.0
            ],
            "type" : "VEC2"
        },
        {
            "bufferView" : 5,
            "componentType" : 5123,
            "count" : 516,
            "max" : [
                371
            ],
            "min" : [
                0
            ],
            "type" : "SCALAR"
        },
        {
            "bufferView" : 6,
            "componentType" : 5126,
            "count" : 372,
            "max" : [
                2.629364013671875,
                1.5582540035247803,
                0.033900998532772064
            ],
            "min" : [
                -2.629364013671875,
                -1.4730089902877808,
                -5.503962993621826
            ],
            "type" : "VEC3"
        },
        {
            "bufferView" : 7,
            "componentType" : 5126,
            "count" : 372,
            "max" : [
                0.9976500868797302,
                0.9913327693939209,
                1.0
            ],
            "min" : [
                -0.9985350966453552,
                -0.9913327693939209,
                -1.0
            ],
            "type" : "VEC3"
        },
        {
            "bufferView" : 8,
            "componentType" : 5126,
            "count" : 372,
            "max" : [
                1.0018800497055054,
                1.0
            ],
            "min" : [
                0.0,
                0.0
            ],
            "type" : "VEC2"
        }
    ],
    "asset" : {
        "generator" : "Khronos Blender glTF 2.0 exporter",
        "version" : "2.0"
    },
    "bufferViews" : [
        {
            "buffer" : 0,
            "byteLength" : 7968,
            "byteOffset" : 0,
            "target" : 34963
        },
        {
            "buffer" : 0,
            "byteLength" : 39312,
            "byteOffset" : 7968,
            "target" : 34962
        },
        {
            "buffer" : 0,
            "byteLength" : 39312,
            "byteOffset" : 47280,
            "target" : 34962
        },
        {
            "buffer" : 0,
            "byteLength" : 52416,
            "byteOffset" : 86592,
            "target" : 34962
        },
        {
            "buffer" : 0,
            "byteLength" : 26208,
            "byteOffset" : 139008,
            "target" : 34962
        },
        {
            "buffer" : 0,
            "byteLength" : 1032,
            "byteOffset" : 165216,
            "target" : 34963
        },
        {
            "buffer" : 0,
            "byteLength" : 4464,
            "byteOffset" : 166248,
            "target" : 34962
        },
        {
            "buffer" : 0,
            "byteLength" : 4464,
            "byteOffset" : 170712,
            "target" : 34962
        },
        {
            "buffer" : 0,
            "byteLength" : 2976,
            "byteOffset" : 175176,
            "target" : 34962
        }
    ],
    "buffers" : [
        {
            "byteLength" : 178152,
            "uri" : "data:application/octet-stream;base64,"
        }
    ],
    "materials" : [
        {
            "name" : "initialShadingGroup",
            "pbrMetallicRoughness" : {
                "baseColorFactor" : [
                    0.6400000190734865,
                    0.6400000190734865,
                    0.6400000190734865,
                    1.0
                ],
                "metallicFactor" : 0.0
            }
        }
    ],
    "meshes" : [
        {
            "name" : "polySurface13 polySurface14",
            "primitives" : [
                {
                    "attributes" : {
                        "NORMAL" : 2,
                        "POSITION" : 1,
                        "TANGENT" : 3,
                        "TEXCOORD_0" : 4
                    },
                    "indices" : 0,
                    "material" : 0
                }
            ]
        },
        {
            "name" : "polySurface11 polySurface12",
            "primitives" : [
                {
                    "attributes" : {
                        "NORMAL" : 7,
                        "POSITION" : 6,
                        "TEXCOORD_0" : 8
                    },
                    "indices" : 5,
                    "material" : 0
                }
            ]
        }
    ],
    "nodes" : [
        {
            "name" : "Armature.002",
            "rotation" : [
                1.0,
                -0.0,
                0.0,
                0.0
            ],
            "scale" : [
                -1.0,
                -1.0,
                -1.0
            ],
            "translation" : [
                1.6684138774871826,
                17.806365966796875,
                -1.0353904962539673
            ]
        },
        {
            "name" : "Camera",
            "rotation" : [
                0.483536034822464,
                0.33687159419059753,
                -0.20870360732078552,
                0.7804827094078064
            ],
            "translation" : [
                7.481131553649902,
                5.34366512298584,
                6.5076398849487305
            ]
        },
        {
            "name" : "Lamp",
            "rotation" : [
                0.16907575726509094,
                0.7558802962303162,
                -0.27217137813568115,
                0.570947527885437
            ],
            "scale" : [
                1.0,
                1.0,
                0.9999999403953552
            ],
            "translation" : [
                4.076245307922363,
                5.903861999511719,
                -1.0054539442062378
            ]
        },
        {
            "mesh" : 1,
            "name" : "polySurface11 polySurface12",
            "rotation" : [
                0.7071068286895752,
                0.0,
                -0.0,
                0.7071067094802856
            ]
        },
        {
            "mesh" : 0,
            "name" : "polySurface13 polySurface14",
            "rotation" : [
                0.7071068286895752,
                0.0,
                -0.0,
                0.7071067094802856
            ]
        }
    ],
    "scene" : 0,
    "scenes" : [
        {
            "name" : "Scene",
            "nodes" : [
                4,
                3,
                2,
                1,
                0
            ]
        }
    ]
}
