{
  "accessors": [
    {
      "name": "object0_default.001_object0_default.000-Mesh_0_positions",
      "componentType": 5126,
      "count": 612,
      "min": [
        -5.992063045501709,
        5.646416187286377,
        -2.359339952468872
      ],
      "max": [
        -3.9414830207824707,
        11.664798736572266,
        2.7675440311431885
      ],
      "type": "VEC3",
      "bufferView": 0,
      "byteOffset": 0
    },
    {
      "name": "object0_default.001_object0_default.000-Mesh_0_normals",
      "componentType": 5126,
      "count": 612,
      "min": [
        -0.9990315437316895,
        -0.9747593998908997,
        -0.9922544360160828
      ],
      "max": [
        0.9980303049087524,
        0.9952289462089539,
        0.9988253712654114
      ],
      "type": "VEC3",
      "bufferView": 1,
      "byteOffset": 0
    },
    {
      "name": "object0_default.001_object0_default.000-Mesh_0_indices",
      "componentType": 5123,
      "count": 3660,
      "min": [
        0
      ],
      "max": [
        611
      ],
      "type": "SCALAR",
      "bufferView": 2,
      "byteOffset": 0
    }
  ],
  "asset": {
    "generator": "obj2gltf",
    "version": "2.0"
  },
  "buffers": [
    {
      "name": "test",
      "byteLength": 22008,
      "uri": "data:application/octet-stream;base64,"
    }
  ],
  "bufferViews": [
    {
      "name": "bufferView_0",
      "buffer": 0,
      "byteLength": 7344,
      "byteOffset": 0,
      "byteStride": 12,
      "target": 34962
    },
    {
      "name": "bufferView_1",
      "buffer": 0,
      "byteLength": 7344,
      "byteOffset": 7344,
      "byteStride": 12,
      "target": 34962
    },
    {
      "name": "bufferView_2",
      "buffer": 0,
      "byteLength": 7320,
      "byteOffset": 14688,
      "target": 34963
    }
  ],
  "materials": [
    {
      "name": "default.000",
      "pbrMetallicRoughness": {
        "baseColorFactor": [
          0.64,
          0.64,
          0.64,
          1
        ],
        "metallicFactor": 0,
        "roughnessFactor": 0.903921569
      },
      "emissiveFactor": [
        0,
        0,
        0
      ],
      "alphaMode": "OPAQUE",
      "doubleSided": false
    }
  ],
  "meshes": [
    {
      "name": "object0_default.001_object0_default.000-Mesh",
      "primitives": [
        {
          "attributes": {
            "POSITION": 0,
            "NORMAL": 1
          },
          "indices": 2,
          "material": 0,
          "mode": 4
        }
      ]
    }
  ],
  "nodes": [
    {
      "name": "object0_default.001_object0_default.000",
      "mesh": 0
    }
  ],
  "scene": 0,
  "scenes": [
    {
      "nodes": [
        0
      ]
    }
  ]
}
